<?xml version="1.0" encoding="UTF-8" standalone="no"?>
<svg
   xmlns:dc="http://purl.org/dc/elements/1.1/"
   xmlns:cc="http://creativecommons.org/ns#"
   xmlns:rdf="http://www.w3.org/1999/02/22-rdf-syntax-ns#"
   xmlns:svg="http://www.w3.org/2000/svg"
   xmlns="http://www.w3.org/2000/svg"
   id="svg216"
   version="1.1"
   viewBox="0 0 194.89856 191.14616"
   height="191.14616mm"
   width="194.89856mm">
  <defs
     id="defs210">
    <clipPath
       id="clipPath522"
       clipPathUnits="userSpaceOnUse">
      <rect
         y="333.896"
         x="16.934"
         height="165.11362"
         width="159.95857"
         id="rect524"
         style="fill:#00ffff;stroke-width:0.21715075" />
    </clipPath>
  </defs>
  <metadata
     id="metadata213">
    <rdf:RDF>
      <cc:Work
         rdf:about="">
        <dc:format>image/svg+xml</dc:format>
        <dc:type
           rdf:resource="http://purl.org/dc/dcmitype/StillImage" />
        <dc:title></dc:title>
      </cc:Work>
    </rdf:RDF>
  </metadata>
  <g
     transform="translate(-16.768075,-67.850134)"
     id="layer1">
    <g
       clip-path="url(#clipPath522)"
       id="g3091"
       transform="matrix(1.2184315,0,0,1.2184315,-3.8648438,-338.97927)">
      <g
         id="g3096">
        <g
           id="g4202"
           transform="translate(17.934,-296.904)">
          <g
             id="g3098">
            <path
               id="path3100"
               d="m 193.2,753.3 h 10 c 10.8,0 16.3,7.3 16.3,14.4 0,7.2 -3.5,14.8 -15.7,14.8 -7.8,0 -10.6,-2.5 -10.6,-9.5 z m -7.7,22.4 c 0,5.8 -1.5,7.6 -9.1,7.6 h -2.1 v 1.8 h 33.9 c 14.9,0 20,-10.3 20,-17.6 0,-7.2 -5.1,-12.9 -13.8,-15.5 v -0.2 c 6.2,-1.1 10.6,-6 10.6,-11.3 0,-4.4 -1.9,-7.6 -5.6,-10.3 -3.3,-2.4 -10.5,-3.6 -18.6,-3.6 -1.8,0 -8.8,0.1 -13.9,0.3 -2.7,0.1 -9.1,0.5 -11.7,0.5 v 1.8 h 3.2 c 6.5,0 7.1,2.8 7.1,8.1 z m 7.7,-47.1 c 2.3,-0.1 6.1,-0.3 8.2,-0.3 11.4,0 15.3,5.9 15.3,12.4 0,7.2 -4.4,10.7 -13.3,10.7 h -10.1 v -22.8" />
          </g>
          <g
             id="g3102">
            <path
               id="path3104"
               d="m 253.5,759.1 c -2.1,0 -3.5,0.1 -5.7,-0.2 v -30.4 c 1.7,-0.2 2.9,-0.2 4.6,-0.2 14.3,0 18.2,6.7 18.2,15.3 0,11.1 -6.8,15.5 -17.1,15.5 z M 322,729.2 v -1.8 h -22.5 v 1.8 c 5.2,0.3 6.9,1.7 6.9,6.7 v 39.5 c 0,6 -1.1,7.6 -6.4,7.9 -7.1,-0.4 -10.1,-3.1 -15.1,-8.2 l -7.3,-7.3 c -4.3,-4.4 -7.1,-6.9 -10.6,-9.6 7.6,-2.2 12.3,-8.1 12.3,-15 0,-9.5 -7.7,-16.5 -24.8,-16.5 -6,0 -7.9,0.1 -11.7,0.3 -3.8,0.2 -9.4,0.5 -11.7,0.5 v 1.8 h 2 c 5.4,0 6.9,1.7 6.9,7.4 v 39 c 0,6.2 -1.9,7.7 -7.4,7.7 H 231 v 1.8 h 26.2 v -1.8 h -2.1 c -5.2,0 -7.4,-1.4 -7.4,-6.9 v -15.7 c 1.5,0.1 2.7,0.2 4.7,0.2 2.5,0 4,-0.1 6.3,-0.2 2.2,1.5 5.5,4.2 9.5,8.2 l 6.1,6.1 c 8,8 11.4,10.5 26.5,10 h 21 v -1.8 c -6.4,0 -7.9,-1.9 -7.9,-7.3 v -39.3 c 0.2,-6.2 2.2,-7.5 8.1,-7.5" />
          </g>
          <g
             id="g3106">
            <path
               id="path3108"
               d="m 328.3,770.9 c 1.9,8.2 8.4,13.1 15.7,13.1 6.2,0 12.8,-3.6 12.8,-10.9 0,-13.3 -29.7,-17.4 -29.7,-33.6 0,-7.7 7,-13.4 16.5,-13.4 7.8,0 9.4,2.3 12.6,2.3 0.7,0 1.1,-0.2 1.7,-0.9 h 1.5 l 1.6,11.8 h -1.6 c -2.6,-6.7 -8.5,-10.9 -14.9,-10.9 -6.1,0 -10.4,3.5 -10.4,8.7 0,13.2 29.7,16.7 29.7,33.7 0,9.1 -8.1,15.8 -18.9,15.8 -5.1,0 -11.6,-2.5 -12.9,-2.5 -0.8,0 -1.5,0.5 -1.9,1 h -1.6 L 326.6,771 h 1.7" />
          </g>
          <g
             id="g3110">
            <path
               id="path3112"
               d="m 399.3,776.5 c 0,5 1.7,6.8 7.3,6.8 h 3.4 v 1.8 h -29.2 v -1.8 h 3.4 c 5.6,0 7.3,-1.8 7.3,-6.8 v -45.8 h -16.1 c -3.7,0 -5.4,2.1 -6.8,10.3 h -1.7 l 1.5,-15 h 1.8 c 0.1,0.6 0.5,0.9 1,1.1 0.6,0.2 1.2,0.3 1.9,0.3 h 44.5 c 1.3,0 2.7,-0.3 2.9,-1.4 h 1.8 l 1.5,15 h -1.7 c -1.4,-8.2 -3.1,-10.3 -6.8,-10.3 h -16.1 v 45.8" />
          </g>
          <g
             id="g3114">
            <path
               id="path3116"
               d="m 491.7,754.6 c 0,-16.7 -15,-28.6 -32.5,-28.6 -19.7,0 -33.9,13.1 -33.9,31.5 0,17.3 15.3,29 33.4,29 18,0 33,-13.2 33,-31.9 z m -8.7,3.1 c 0,13.1 -7.2,26.5 -22.3,26.5 -14.9,0 -26.7,-12.2 -26.7,-29.5 0,-11.1 6.5,-26.3 22.8,-26.3 15.2,-0.1 26.2,12.1 26.2,29.3" />
          </g>
          <g
             id="g3118">
            <path
               id="path3120"
               d="m 534.7,785 h -41.4 v -1.8 h 3.1 c 4.3,0 5.8,-1.4 5.8,-6.1 v -41 c 0,-4.9 -1.5,-6.9 -7.3,-6.9 h -1.3 v -1.8 h 27.3 v 1.8 h -3.4 c -6,0 -7.6,0.6 -7.6,6.4 v 42.7 c 0,2.5 1,3.4 3.7,3.4 h 13.6 c 5.5,0 7.1,-2.1 13,-10.2 h 1.7 l -7.2,13.5" />
          </g>
          <g
             id="g3122">
            <path
               style="fill:#bf2f38"
               id="path3124"
               class="st0"
               d="m 102.1,700.9 c -0.1,-5.4 -1.9,-16.4 -14.8,-22.7 13.1,4.2 19.4,15.2 20,23.5 13.8,2.7 26,9.2 45.8,2.4 h 0.1 c 0,0 -26.1,0.2 -37,-7.6 5.6,0.2 12.1,-1.1 14.2,-4.2 2.3,-3.4 2.5,-6.9 8.1,-7.1 3.1,-0.1 13.8,0.7 14.9,-14.9 -3.4,5.7 -7.1,8.1 -12.6,6.7 -3.5,-0.9 -10,-3.6 -14.7,1.9 -3.8,4.6 -7.9,6.9 -14.5,6.2 2.6,-3.5 41.7,-54.3 41.7,-54.3 0,0 -50,40.2 -52.8,42.5 -0.5,-7.3 1.7,-10 4.6,-13.2 2.4,-2.6 6.6,-6.2 3.3,-13.7 -2.7,-6.1 -2.3,-9.8 5,-15.6 -5.8,0.4 -14.8,4.4 -13.7,15.1 0.6,6.5 -4,7 -5.6,8 -4.4,2.4 -4.9,9.4 -5.1,14.9 -0.5,-1.8 -6.8,-29 -9.1,-37.8 v 73.3 H 80 c 8.5,-3.6 15.5,-4.1 22.1,-3.4" />
          </g>
          <g
             id="g3126">
            <path
               id="path3128"
               d="m 226.5,661.4 v 1.3 c -4.6,0.1 -6.2,1.9 -6.2,6.3 v 18.5 c 0,8.5 -5.4,17.6 -20.3,17.6 -13.1,0 -19.8,-7.5 -19.8,-17.3 v -20.1 c 0,-4.4 -1.2,-5.1 -5.9,-5.2 v -1.3 h 17.6 v 1.3 h -0.6 c -3.8,0 -5.4,1 -5.4,5 v 19.1 c 0,9.3 5.4,14.8 15.7,14.8 7.8,0 15.7,-3.2 15.7,-14.9 v -16 c 0,-6.6 -1,-7.8 -6.7,-8 v -1.3 h 15.9" />
          </g>
          <g
             id="g3130">
            <path
               id="path3132"
               d="m 235.5,698.1 c 0,3.8 0.9,4.7 4.6,4.7 v 1.3 h -13.8 v -1.3 c 3,0 4.6,-1.6 4.6,-4.3 V 684 c 0,-2.5 -0.3,-3 -2.1,-3.4 l -2.3,-0.5 V 679 l 7.9,-2.9 h 1.1 v 5.4 c 4.6,-2.9 8.4,-5.4 11.8,-5.4 4.7,0 7.3,3.4 7.3,10.3 0,9.1 -0.5,10.9 -0.6,13.6 -0.1,1.9 1,2.7 3.8,2.7 h 1.5 v 1.3 h -14.8 v -1.3 c 2,-0.1 3.2,-0.6 3.9,-1.3 1.3,-1.3 1.4,-6.3 1.4,-15.5 0,-5.5 -2.7,-7.2 -5.4,-7.2 -2.2,0 -5.6,1.9 -9.1,4.4 v 15" />
          </g>
          <g
             id="g3134">
            <path
               id="path3136"
               d="m 269.8,660.3 c 1.6,0 3,1.2 3,2.6 0,1.4 -1.4,2.6 -3,2.6 -1.6,0 -3,-1.2 -3,-2.6 0.1,-1.4 1.4,-2.6 3,-2.6 z m 2.8,38.6 c 0,2.4 1.3,3.9 4.9,3.9 v 1.3 h -15.2 v -1.3 c 4.2,0 5.7,-1.4 5.7,-5 V 684 c 0,-2.7 -0.3,-3 -2.1,-3.4 l -3.2,-0.6 v -1.1 l 8.9,-3.1 h 1 v 23.1" />
          </g>
          <g
             id="g3138">
            <path
               id="path3140"
               d="m 293.3,704.7 -10,-22.8 c -1,-2.4 -1.9,-3.2 -3,-3.4 l -2.1,-0.3 V 677 h 14 v 1.2 c -4.2,0.1 -5.5,0.7 -3.9,3.9 l 7.3,17.1 7,-15.9 c 1.2,-2.8 0.6,-4.8 -4.4,-5.2 v -1.2 h 11.9 v 1.2 c -2.6,0.5 -4.1,2 -5.4,5 l -9.5,21.6 h -1.9" />
          </g>
          <g
             id="g3142">
            <path
               id="path3144"
               d="M 335.8,686.6 V 685 c -2.3,-2.3 -2.1,-8.9 -11.3,-8.9 -8.4,0 -13.3,7.4 -13.3,14.7 0,8 5.2,14.1 11.9,14.1 5,0 9.3,-3.4 12.2,-7.1 l -0.8,-0.8 c -2.6,3.1 -5.3,4.5 -8.7,4.5 -5.4,0 -10.4,-4.8 -10.4,-11.9 0,-0.9 0.1,-1.9 0.3,-2.9 h 20.1 z m -19.9,-1.8 c 1.6,-6.4 5,-7.4 7.3,-7.4 3.3,0 6,3 6.8,7.4 h -14.1" />
          </g>
          <g
             id="g3146">
            <path
               id="path3148"
               d="m 349,699.1 c 0,2.8 1,3.7 4.5,3.7 h 2.6 v 1.3 h -16.3 v -1.3 c 3.5,-0.1 4.6,-1.5 4.6,-5.2 v -15.9 l -4.6,-1.6 v -1.2 l 7.8,-2.7 h 1.4 v 7.3 h 0.1 c 3.4,-5.6 4.3,-6.9 6.5,-6.9 0.8,0 1,0.1 2.3,0.6 0.7,0.3 1.9,0.5 3.6,1 l -1.7,4.1 c -1,-0.1 -2.3,-0.5 -3.6,-1.1 -0.8,-0.3 -1.6,-0.7 -2.4,-0.7 -1.2,0 -2,0.8 -2.7,1.8 -0.9,1.2 -1.7,2.4 -2.2,3.4 v 13.4" />
          </g>
          <g
             id="g3150">
            <path
               id="path3152"
               d="m 366.3,697.1 c 0.8,4.1 3.4,6.5 6.5,6.5 2.7,0 4.9,-2.1 4.9,-4.5 0,-1.4 -0.3,-2.3 -2.2,-4.2 -4.9,-4.9 -10.3,-5.4 -10.3,-11.1 0,-4.5 3.6,-7.7 8.8,-7.7 1.9,0 3.8,0.4 5.5,1.1 l 0.1,6.2 h -1.2 c -0.5,-3.5 -2.8,-5.7 -5.5,-5.7 -2.3,0 -4.2,1.6 -4.2,3.8 0,6 12.8,7.1 12.8,15.5 0,4.5 -3.7,7.8 -8.5,7.8 -1.3,0 -2.3,-0.2 -3,-0.5 -0.8,-0.2 -1.3,-0.4 -1.9,-0.4 -0.4,0 -0.8,0.3 -1.2,0.8 h -1 l -0.8,-7.7 h 1.2" />
          </g>
          <g
             id="g3154">
            <path
               id="path3156"
               d="m 393.3,660.3 c 1.7,0 3,1.2 3,2.6 0,1.4 -1.4,2.6 -3,2.6 -1.6,0 -2.9,-1.2 -2.9,-2.6 -0.1,-1.4 1.2,-2.6 2.9,-2.6 z m 2.8,38.6 c 0,2.4 1.3,3.9 4.9,3.9 v 1.3 h -15.2 v -1.3 c 4.2,0 5.7,-1.4 5.7,-5 V 684 c 0,-2.7 -0.3,-3 -2.1,-3.4 l -3.2,-0.6 v -1.1 l 8.9,-3.1 h 1 v 23.1" />
          </g>
          <g
             id="g3158">
            <path
               id="path3160"
               d="m 420.6,676.9 -1.1,3 h -8.7 v 16 c 0,4.3 3.1,5.8 4.5,5.8 1.5,0 2.9,-1.2 4.2,-3.4 l 1.1,1 c -1.6,3.6 -4.3,5.6 -7.5,5.6 -4.1,0 -6.9,-3.4 -6.9,-8 v -17 H 403 v -1.1 c 2.7,-1.3 5,-4.5 6.6,-8.7 h 1.2 v 6.8 h 9.8" />
          </g>
          <g
             id="g3162">
            <path
               id="path3164"
               d="m 447.8,684.5 c 2.1,-5.2 0.8,-6.2 -3.3,-6.4 v -1.2 h 11.4 v 1.2 c -2.8,0.3 -4.4,2.3 -5.7,5.5 l -11.7,29.1 c -2.1,5.1 -3.6,7.3 -6,7.3 -1.7,0 -2.8,-1 -2.8,-2.4 0,-2.8 4,-2.1 5.7,-3.8 0.8,-0.8 1.8,-2.5 2.3,-3.9 l 2.1,-5.1 -10.6,-22.6 c -1.3,-2.8 -2.5,-4 -5.4,-4 V 677 h 13.8 v 1.2 c -4.2,0.1 -4.7,1.3 -3.3,4.2 l 7.8,16.8 5.7,-14.7" />
          </g>
          <g
             id="g3166">
            <path
               id="path3168"
               d="m 471.3,690.7 c 0,8 6.5,14.2 15,14.2 8.2,0 14.6,-6.2 14.6,-14.4 0,-8.2 -6.4,-14.4 -14.8,-14.4 -7.1,0 -14.8,5.1 -14.8,14.6 z m 5.1,-2.4 c 0,-5.9 4.2,-10.6 8.7,-10.6 5.8,0 10.6,6.7 10.6,14.5 0,6.9 -4.6,11 -8.7,11 -5.8,0 -10.6,-6.5 -10.6,-14.9" />
          </g>
          <g
             id="g3170">
            <path
               id="path3172"
               d="m 520.8,679.9 h -7.4 v 18.8 c 0,3.2 1.2,4.1 5.1,4.1 h 2.6 v 1.3 h -17 v -1.3 c 4,0 4.7,-0.9 4.7,-4.7 V 680 h -5.1 v -1.2 c 1.9,-0.4 3.6,-1 5.1,-1.9 0,-5.7 1.2,-10 5.3,-14.1 3.4,-3.4 6.6,-4.9 9.8,-4.9 3.8,0 7.1,2.2 7.1,3.2 0,0.5 -1.3,3.3 -1.9,3.3 -1,0 -3.5,-3.4 -8,-3.4 -4.9,0 -7.6,3.9 -7.6,10.6 v 5.2 h 6.9 l 0.4,3.1" />
          </g>
          <g
             id="g3174">
            <path
               style="fill:#bf2f38"
               id="path3176"
               class="st0"
               d="m 52.9,670.4 c -0.6,-3 -0.3,-9.1 2.7,-15 -11,8.3 -11.1,15 -11.1,15 0,0 2.1,-1.6 8.4,0 z m -5.1,-18.1 c 0,0 -13.3,1.9 -17.1,2.3 -2.6,1.6 -5.7,5.9 -5.7,5.9 0,0 -3.1,0.5 -9.4,1.6 -4.3,2.8 -6.9,9.4 -1.6,14.8 -1.7,-0.4 -1.7,-0.4 -4.2,-0.8 -5.3,3.4 -2.8,9.7 8.2,7.5 -3.1,-0.1 -4.7,-1.6 -4.6,-3.6 -0.1,-2.2 4.1,-4.9 9.3,-3.5 -4.9,-9.2 0.5,-12.9 0.5,-12.9 0,0 -2.9,7.6 3.4,13.9 0.6,-0.9 2.4,-3.5 7.7,-3.6 5.3,-0.1 8.6,2.5 8.6,5.5 0.1,2.6 -3.3,5.4 -7.6,5.4 l -0.1,-6.3 c 0,0 -1.4,0.5 -1.8,1.1 v 5.3 c -1.7,0 -5.2,-0.7 -7,-3.6 C 25,681.2 17.1,680 17.1,680 l 0.4,2.1 c 0,0 2.8,0.5 3.3,3.2 0.6,3.3 2.6,6.4 4.2,7.7 3.3,-0.4 8.7,-4.5 18.8,-4.4 -9.2,1.3 -18.6,11.1 -32,7.4 21.4,7.3 23.6,-8.9 50.4,-3.8 -4.2,-2.5 -10.4,-3.3 -10.4,-3.3 0,0 3.3,-3.6 3.5,-9.1 0.4,0 1,-0.1 2.1,-0.2 C 57.8,677.8 58,676 58,676 H 47.3 c -11.9,-12.3 0.5,-23.7 0.5,-23.7 z M 18,652.1 c 3.4,0.2 7.5,-1.9 7.7,-2.1 0,0 -1.4,3.6 1.8,3.4 3.5,-0.2 7.4,-2 8,-2.3 v -4.6 c -0.3,0.2 -3.7,2.6 -7.5,3.5 -1.4,0.3 -0.9,-0.9 -0.8,-1.6 0.1,-0.7 0.2,-1.3 -2.3,-0.2 -10.2,4.2 -10.8,1.3 -10.8,1 -0.4,0.4 -0.2,2.7 3.9,2.9 z m 54.2,-21.3 v 73.3 C 42.7,692.5 30.4,715 -1,704.1 v -73.3 h 14.9 v 7.9 h 8.6 v -7.9 h 8.4 v 7.9 h 8.5 v -7.9 h 8.5 v 7.9 h 9.2 v -7.9 h 15.1" />
          </g>
          <g
             id="g3178">
            <path
               style="fill:#bf2f38"
               id="path3180"
               class="st0"
               d="m 100.4,730.5 c 0,0 -0.3,-0.2 0.3,-0.7 0.1,-0.1 0.2,0.1 0.6,0.1 0.5,0 0.8,-0.2 1.2,-0.7 0.7,-0.8 -0.7,-1.1 -1.2,-0.7 -0.5,0.4 -0.8,0.8 -1.2,1.2 0,0 -0.7,0.6 0.3,0.8 z m 25.2,37 c -1.2,1 -4.8,2.8 -5.7,3.2 -0.9,0.4 -1.2,0.7 -1.9,2 -0.8,1.6 -1.6,4.5 -1.4,4.7 2.2,-0.4 3.8,-2.2 3.8,-2.2 0,0 0,-0.5 -0.5,-1.2 -0.4,-0.6 0.4,-1.3 0.9,-0.9 0.4,0.3 0.9,0.4 1.2,0.1 0.3,-0.3 7.3,-4.7 7.6,-5.2 -1.4,-1.4 -2.5,-2.8 -2.5,-2.8 0,0 -0.3,1.4 -1.5,2.3 z M 98.4,748.1 c -3,-1.2 -3.6,-2 -4.2,-2.2 -0.5,-0.2 -2.5,0.7 -2.9,1.5 -0.9,2.4 -3,6.2 -3.3,6.8 -0.2,0.3 -0.3,0.6 -0.3,1 0,0.4 0.2,1.9 0.1,2.3 0,0.4 0,0.8 0.2,1.2 0.1,0.4 0.3,1.9 1.1,3.4 1.7,-1.7 2,-4.3 1.9,-3.8 0,0 0.6,-0.9 -0.8,-1.4 -0.4,-0.1 -0.3,-1.1 0.1,-1.3 0.5,-0.2 0.8,-0.3 1,-1.2 0.2,-0.9 1.2,-4.2 1.5,-4.9 0,-0.1 0.1,-0.3 0.3,-0.3 0.3,-0.1 0.6,-0.2 0.8,-0.3 0.1,0 0.4,0.1 0.5,0.2 0.5,0.5 2.9,2.5 2.9,2.5 0,0 1.1,-0.1 1.8,-0.4 -0.4,-0.6 -0.6,-2.3 -0.7,-3.1 z m -3,-14 c 0,0 -1,1.3 0.1,1.6 0,0.4 0.2,1.1 0.3,1.5 0.2,0.5 0.5,0.3 0.9,-0.1 0.4,-0.4 1,-1.2 1.4,-1.7 0.4,-0.4 1.8,-0.3 1.2,0.6 -0.4,0.6 -0.7,0.7 -1.1,0.8 -0.4,0.1 -0.5,-0.2 -0.9,0.3 -0.4,0.6 -0.9,1 -0.1,1 0.4,0 1.2,0.4 1.7,0.3 0.5,-0.1 0.5,-0.4 0.6,-0.8 0.1,-0.4 0,-0.7 0.5,-1 0.6,-0.4 1.6,-1.2 1.9,-1.5 0.3,-0.3 0.7,-0.3 1.2,-0.3 0.4,0 2.5,0.2 3.7,-1.6 0.9,-1.3 1,-3.1 0.6,-4.6 0.6,0.6 1.4,2.4 1,4.1 -0.7,3.1 -2.2,3.2 -3.8,3.6 -0.6,0.9 -2.3,3.2 -3.1,7.4 -0.4,0.2 -3.5,3.2 -0.9,8.1 -0.7,0.2 -2.6,1.1 -3.8,1.3 -0.8,0.2 -1.4,0.2 -1.7,0.6 -0.4,0.4 -1.2,1.8 -0.7,2.5 0.3,0.5 2.2,4.8 2.4,6.1 0.2,1.3 0.6,1.6 1.1,2.1 0.5,0.5 0.9,0.5 1.6,1 0.8,0.6 1.4,1.6 2.1,2.1 0.7,0.6 1.6,0.9 2.2,0.8 -0.1,-2.2 -0.6,-4.3 -1.3,-5 -0.7,-0.7 -1.6,0.3 -1.8,0.4 -0.2,0.1 -0.5,-0.2 -0.6,-0.7 -0.1,-0.6 0.4,-1.1 -0.1,-1.9 -1,-1.5 -1.9,-3.1 -2,-3.4 -0.7,-1.4 0.5,-1.7 0.8,-1.6 0.7,0.2 4.8,0.7 5.5,0.8 0.6,0.1 1,0.2 1.3,-0.2 0.9,-1 1.4,-1.7 1.9,-2.7 0.9,0.7 0.3,2 0,3.6 0.3,0.2 6.3,3.3 14.5,1.1 3.4,-0.9 3.1,-0.2 3.4,0.4 2,3.9 3.4,5.4 5.8,7.3 0.7,0.6 1.2,1.5 1.5,2 0.3,0.5 0.4,1.5 0.1,2.1 -0.3,0.8 -2.2,4.1 -2.5,4.5 -0.6,0.9 -1.4,1.6 -2.1,2 -2.1,1.1 -2.6,2.1 -2.8,2.9 h 5.4 c 0,0 0.1,-0.3 0.1,-0.9 -0.1,-0.9 0.8,-1.1 1,-1.2 0.3,-0.1 0.7,0.2 1.2,-0.8 0.8,-1.9 3.9,-7.2 4.2,-7.7 0.3,-0.5 1.2,-1.8 0.3,-2.3 -1.8,-1.1 -2.9,-2.8 -3.2,-4.8 -0.1,-0.8 -0.1,-2.1 1.7,-4.2 3.8,-4.7 1,-14.3 -7.4,-14.1 -4.7,0.1 -7.4,-0.3 -10.5,-0.9 -1.1,-0.2 -1.3,-0.8 -1.1,-1.5 0.2,-0.7 0.5,-2.1 0.5,-2.7 -0.8,-0.7 -2.1,-1.2 -2.7,-1.4 -0.6,-0.2 -1,-0.7 -0.3,-0.8 0.7,0 3.1,0.2 3.1,0.2 0,0 0.1,-1.3 -0.3,-3.3 -1.1,-0.5 -2.4,-0.9 -3.8,-1 -0.4,0 -0.7,-0.5 0.2,-0.6 1.2,-0.2 2.4,0 3.3,0 0.1,-0.1 -0.4,-2.6 -1.3,-3.6 -0.6,-0.2 -0.9,-0.3 -3.1,-0.5 -0.7,-0.1 -0.8,-0.3 -0.3,-0.5 0.6,-0.2 1.5,-0.4 2.7,-0.3 -0.5,-0.6 -3.5,-6.3 -9.9,-4.6 0.7,0.9 1.1,1.3 1.3,1.9 0.2,0.5 -0.4,0.7 -0.9,0.2 -2,-2.1 -3.1,-2.1 -4.4,-2.3 0.9,0.8 1.2,1.6 1.5,2.5 -1.5,1 -3.5,3.5 -3.8,4 -0.6,0.9 0.2,1.4 0.2,1.4 z m 41.3,-14.2 c -6.5,2.3 -5.6,9.3 -3.8,12 2.3,3.5 4.2,3.6 5.7,7.8 1.1,3.2 -0.9,4.9 -2.9,5.7 3.5,2.1 7,-0.1 8.3,-2.2 2.3,-3.1 -0.3,-7.2 2.2,-9.3 0.7,-0.6 1.8,-1 3.3,-1 -1.5,-2.2 -5.1,-1.9 -6.5,0.1 -1,-2.3 -3.8,-4.4 -2.8,-8 0.7,-2.4 4.4,-3.3 5.8,-1.3 0.8,1.1 0.9,3.2 -1.4,4.2 1.4,-0.1 4.1,-2.6 2.3,-5.9 -1.3,-2.3 -3.5,-2.5 -5.2,-2.5 -3.2,0 -8.6,3.7 -5.2,11.6 -2,-1.7 -5.2,-7.8 0.2,-11.2 z M 153,711.6 V 785 c -40.6,9.9 -41.8,-11.7 -73.2,0 v -73.4 c 28.9,-12.1 40.2,10.9 73.2,0" />
          </g>
          <g
             id="g3182">
            <path
               style="fill:#bf2f38"
               id="path3184"
               class="st0"
               d="m 25.6,753.5 c 0,0 -1.3,0.8 0.3,4.4 1.6,3.5 3.6,6.8 0.1,10.7 2,0 6.3,-2.6 1.7,-10.3 -1,-1.8 -2.1,-3.1 -2.1,-4.8 z m -4.3,1.7 c 1.1,-0.1 1.2,-1.4 1,-2.1 -0.2,-0.8 -1.6,-0.9 -1.9,0.1 -0.3,1 0,2 0,2 0.3,1 1.4,1.3 1.5,1.2 -0.7,-0.5 -0.5,-0.9 -0.6,-1.2 z m 1,4.7 c -0.3,3.1 -2,3.6 -2,3.6 -3.1,-1.4 -4.8,2.5 -2.2,3.6 3.3,1.5 5.3,-2.8 5.5,-3.6 0.6,-2.2 0.6,-3.8 0.4,-7.5 -0.2,-3.1 0.6,-3.6 1.1,-3.7 0.5,-0.1 1.6,-0.1 2.6,3.1 1.1,3.2 3.4,3.7 3.4,3.7 0,0 -3.3,-5.4 1.3,-10.4 2.2,-2.3 6.5,-3.6 5.7,-6.9 0,0 -0.7,1.2 -2,1.5 -1.3,0.3 -3.9,0.7 -3.9,0.7 0,0 6.1,-2.9 7.2,-6.2 0,0 1.9,3.2 -0.6,7.9 0,0 2.4,-0.9 5.1,0.3 6.7,3 6,12.5 -2.5,14.8 -12,3.2 -7.7,12.5 -0.8,13.1 -0.7,-0.5 -0.9,-3.3 0.3,-4.9 0.6,-0.5 1.7,-1.6 2.4,0.7 1.2,4 4.7,4.4 6.4,3.9 -0.4,-0.4 -1.2,-1.6 -1.1,-2.3 0.2,-1.4 2,0.1 2.6,0.2 4.7,1.3 7.3,0.2 7.5,-0.5 -1.1,-0.2 -0.9,-0.1 -1.5,-0.3 -0.6,-0.2 -1.8,-1 0.4,-1.5 4.2,-1 6.5,-5.3 3.7,-8.6 -2.6,-3.2 -5.9,-2.7 -7,-2.3 4.5,1 4.8,4.6 2.5,6.5 -2,1.5 -7,2.1 -8.7,-1.2 -1.1,0.8 -1.5,2 -1.3,3.6 -0.5,-0.2 -2.4,-2.9 0.5,-5.1 13.1,-8.4 11,-22.6 -0.1,-28.5 l -0.1,-0.1 C 37,727.7 28.2,733 28.2,733 c 6.2,-6.2 17,-2.5 18.5,-1.8 0,0 -1.2,-1.1 -1.9,-2.1 -0.9,-1.3 -0.8,-2.5 -0.8,-2.5 -4.3,2.4 -5.4,-1.3 -5.4,-1.3 0,0 -3.7,3.3 -6.1,0.6 -2.1,-2.4 1.3,-5.6 1.3,-5.6 -21.6,7.1 -17.5,19.3 -17.5,19.3 0,0 -3.1,2.9 -3.8,9.8 -0.8,7.9 3.1,13.5 8,11.9 1,-0.3 1.6,-0.8 1.8,-1.4 z M 72.2,711.6 V 785 C 40.8,773.3 39.6,794.9 -1,785 v -73.4 c 33,10.9 44.3,-12.1 73.2,0" />
          </g>
        </g>
      </g>
    </g>
  </g>
  <style
     id="style405">.st0{fill:#bf2f38}</style>
</svg>
